PathFileType	4	(X/Y/Z)	c:/Users/goper/Files/vsCode/490R/osim_files/C05/C05_Static.trc
DataRate	CameraRate	NumFrames	NumMarkers	Units                	OrigDataRate	OrigDataStartFrame	OrigNumFrames
250.00	250.00	6	36	mm	250.0	461	1840
                Frame#	Time	LPSIS			LASIS			LTH1			LTH2			LTH3			LTH4			LLFE			LMFE			LSH1			LSH2			LSH3			LSH4			LLMAL			LMMAL			LCAL			LMTP5			LTOE			LMTP1			RPSIS			RASIS			RTH1			RTH2			RTH3			RTH4			RLFE			RMFE			RSH1			RSH2			RSH3			RSH4			RLMAL			RMMAL			RCAL			RMTP1			RTOE			RMTP5		
		X1	Y1	Z1	X2	Y2	Z2	X3	Y3	Z3	X4	Y4	Z4	X5	Y5	Z5	X6	Y6	Z6	X7	Y7	Z7	X8	Y8	Z8	X9	Y9	Z9	X10	Y10	Z10	X11	Y11	Z11	X12	Y12	Z12	X13	Y13	Z13	X14	Y14	Z14	X15	Y15	Z15	X16	Y16	Z16	X17	Y17	Z17	X18	Y18	Z18	X19	Y19	Z19	X20	Y20	Z20	X21	Y21	Z21	X22	Y22	Z22	X23	Y23	Z23	X24	Y24	Z24	X25	Y25	Z25	X26	Y26	Z26	X27	Y27	Z27	X28	Y28	Z28	X29	Y29	Z29	X30	Y30	Z30	X31	Y31	Z31	X32	Y32	Z32	X33	Y33	Z33	X34	Y34	Z34	X35	Y35	Z35	X36	Y36	Z36

461	1.84000	-422.97327	1063.03137	414.52115	-230.46178	1023.19904	349.38043	-371.14874	714.64099	281.09464	-366.82956	651.83630	283.85544	-294.58734	713.22815	277.08768	-300.01575	652.00232	280.88223	-333.68353	542.96924	290.87354	-335.36221	522.20654	408.51453	-436.25256	370.53998	277.69061	-430.60974	327.42322	277.04660	-374.56009	370.80087	258.70151	-380.10629	327.68161	262.63666	-396.22119	97.24280	287.62082	-359.91504	108.23626	367.58563	-447.77740	68.47091	343.37851	-262.08575	40.91302	237.90417	-216.88333	65.10605	292.76971	-224.24811	45.48296	341.53192	-415.31757	1067.53088	522.14282	-222.57234	1025.78857	580.80493	-360.45239	717.11670	659.13770	-361.28806	654.07904	655.81787	-285.81213	710.09528	664.25348	-297.03430	648.00073	660.89490	-314.80267	535.40009	645.70428	-341.42813	507.30609	541.54242	-400.24014	386.17291	681.22729	-396.64999	338.27649	679.51221	-340.36743	382.21954	674.02197	-345.43588	335.79236	672.87518	-377.08597	96.33138	649.16998	-364.53455	109.47027	564.25525	-445.45895	68.48403	608.25104	-232.75154	40.84640	557.84741	-207.12434	63.83969	603.40686	-249.75713	34.01057	672.69122
462	1.84400	-422.97473	1063.04138	414.52533	-230.46698	1023.17896	349.37894	-371.11630	714.63788	281.09631	-366.79166	651.80219	283.83234	-294.55890	713.23358	277.08783	-300.01624	651.99329	280.87888	-333.66605	542.95361	290.86627	-335.35779	522.17657	408.51071	-436.21991	370.52246	277.68185	-430.63681	327.39999	277.06409	-374.56326	370.77530	258.71381	-380.09070	327.65970	262.63278	-396.19440	97.24105	287.61462	-359.90765	108.24333	367.59760	-447.78421	68.49889	343.39273	-262.08820	40.89486	237.92195	-216.90141	65.08455	292.75674	-224.29768	45.45721	341.53348	-415.32877	1067.55273	522.14679	-222.57002	1025.77759	580.80676	-360.45059	717.11658	659.12988	-361.29575	654.08582	655.81372	-285.78241	710.10571	664.24353	-296.99887	648.01691	660.88770	-314.79111	535.40625	645.71216	-341.44028	507.29251	541.53839	-400.26379	386.18069	681.23096	-396.61475	338.28592	679.51245	-340.34079	382.23297	674.00745	-345.43314	335.79865	672.85889	-377.07651	96.33010	649.15796	-364.52280	109.44714	564.25330	-445.43298	68.45592	608.24182	-232.74876	40.81875	557.85254	-207.13005	63.81905	603.40076	-249.75415	33.99375	672.68719
463	1.84800	-422.95993	1063.03674	414.51797	-230.29391	1023.19244	349.32104	-371.13141	714.61713	281.07565	-366.81573	651.78369	283.84177	-294.54507	713.22412	277.08792	-300.03067	651.95959	280.86151	-333.64661	542.93213	290.87836	-335.32724	522.17853	408.50339	-436.23962	370.51688	277.67780	-430.67767	327.31998	277.06366	-374.54626	370.77045	258.70813	-380.08572	327.65121	262.62183	-396.21512	97.23586	287.60889	-359.88934	108.25227	367.58331	-447.79752	68.49883	343.38022	-262.06934	40.89069	237.91193	-216.88295	65.07633	292.72867	-224.28265	45.44629	341.51657	-415.31540	1067.54858	522.14630	-222.57664	1025.77148	580.78235	-360.41406	717.12463	659.14532	-361.25333	654.10199	655.85699	-285.77225	710.07874	664.24603	-296.97910	648.01074	660.89624	-314.79376	535.39813	645.69922	-341.47061	507.28525	541.56903	-400.21866	386.17444	681.24176	-396.61658	338.27115	679.51160	-340.35654	382.22549	674.01550	-345.40756	335.80029	672.86035	-377.03848	96.33251	649.17169	-364.53238	109.42391	564.25385	-445.43933	68.46487	608.21460	-232.75653	40.80293	557.83008	-207.10786	63.81583	603.39337	-249.74353	33.98926	672.68353
464	1.85200	-422.97217	1063.02393	414.52777	-230.30450	1023.17316	349.32642	-371.12186	714.60260	281.06607	-366.78296	651.76941	283.82654	-294.58279	713.18140	277.07831	-300.02454	651.92828	280.86981	-333.64941	542.91095	290.86292	-335.30939	522.19489	408.50952	-436.23444	370.50244	277.66193	-430.65543	327.34515	277.04227	-374.56421	370.75467	258.69980	-380.06113	327.64224	262.62619	-396.22311	97.22335	287.59256	-359.88483	108.25812	367.57849	-447.79480	68.50043	343.35410	-262.07761	40.87180	237.88542	-216.86990	65.05226	292.72650	-224.24690	45.44666	341.52771	-415.31052	1067.54712	522.15021	-222.57849	1025.75049	580.77271	-360.42908	717.11469	659.13977	-361.27374	654.09058	655.82538	-285.76498	710.09784	664.25336	-296.97504	648.01636	660.89142	-314.77179	535.39581	645.69257	-341.46072	507.28751	541.57910	-400.19641	386.16678	681.22894	-396.60739	338.28476	679.50909	-340.32159	382.22598	674.00397	-345.40247	335.81308	672.84955	-377.04263	96.33154	649.15906	-364.51987	109.41854	564.24414	-445.42874	68.45284	608.21008	-232.75877	40.77336	557.81934	-207.11154	63.82098	603.37799	-249.74678	33.99652	672.66956
465	1.85600	-422.97992	1063.00952	414.50790	-230.29956	1023.18097	349.31165	-371.11627	714.59790	281.06158	-366.78357	651.77313	283.80386	-294.59692	713.19885	277.06616	-300.04306	651.93555	280.84845	-333.68295	542.91473	290.85641	-335.35840	522.17822	408.50595	-436.24600	370.50565	277.65265	-431.80728	326.61057	278.06033	-374.57462	370.75760	258.68356	-380.09976	327.60922	262.61188	-396.21884	97.22196	287.57303	-359.88177	108.25406	367.56946	-447.78210	68.48334	343.34991	-262.08813	40.86130	237.89209	-216.87396	65.07677	292.72263	-224.23392	45.47626	341.51169	-415.30872	1067.53088	522.13086	-222.55449	1025.76160	580.77448	-360.42081	717.12665	659.12354	-361.22372	654.09448	655.80969	-285.73843	710.09918	664.25336	-296.96158	648.02283	660.87244	-314.75821	535.39893	645.69983	-341.44983	507.28876	541.56519	-400.19266	386.16721	681.22205	-396.59772	338.28577	679.50208	-340.23193	382.26575	674.17566	-345.38535	335.80832	672.84210	-377.03210	96.32899	649.14325	-364.54739	109.42040	564.24457	-445.40622	68.41634	608.18787	-232.79601	40.78604	557.81598	-207.14423	63.80182	603.38818	-249.73148	33.99129	672.65619
466	1.86000	-422.97430	1063.00586	414.47076	-230.31429	1023.19501	349.30276	-371.08746	714.59314	281.04059	-366.78760	651.77411	283.81223	-294.58704	713.19110	277.05914	-300.06583	651.96741	280.85489	-333.68451	542.93054	290.86966	-335.33871	522.21729	408.50751	-436.23740	370.50012	277.65381	-430.59583	327.37851	276.98260	-374.57358	370.77335	258.67587	-380.10034	327.64600	262.59875	-396.22571	97.23284	287.59125	-359.90747	108.26026	367.55801	-447.78735	68.46130	343.31891	-262.07376	40.89108	237.88211	-216.88091	65.09547	292.71317	-224.21678	45.50851	341.50671	-415.32153	1067.52026	522.10272	-222.54160	1025.78699	580.77142	-360.45322	717.13287	659.11060	-361.27777	654.10620	655.81061	-285.76642	710.10870	664.22217	-296.96097	648.04333	660.85901	-314.77869	535.41907	645.67963	-341.48373	507.28061	541.54614	-400.25003	386.17041	681.20190	-396.64816	338.28720	679.46619	-340.34119	382.23370	673.98895	-345.40067	335.84042	672.83569	-377.08344	96.33117	649.13159	-364.54660	109.42667	564.23285	-445.43152	68.42957	608.18567	-232.78741	40.79487	557.81665	-207.13081	63.84364	603.36340	-249.74734	34.02066	672.65497
